<?xml version="1.0" standalone="no"?>
<!DOCTYPE svg PUBLIC "-//W3C//DTD SVG 20010904//EN"
        "http://www.w3.org/TR/2001/REC-SVG-20010904/DTD/svg10.dtd">
<svg version="1.0" xmlns="http://www.w3.org/2000/svg"
     width="512" height="512" viewBox="0 0 512 512"
     preserveAspectRatio="xMidYMid meet">
  <circle cx="256" cy="256" r="250" fill="white"/>
  <g transform="translate(0.000000,512.000000) scale(0.100000,-0.100000)">
    <path d="M2395 5110 c-356 -24 -675 -112 -1003 -280 -746 -379 -1254 -1101
-1367 -1945 -23 -165 -23 -481 0 -645 159 -1169 1046 -2058 2210 -2215 165
-23 481 -23 645 0 580 79 1087 329 1490 734 461 463 717 1050 746 1714 11 228
-22 517 -82 732 -32 115 -30 108 -36 125 -178 500 -414 858 -764 1160 -514
443 -1170 664 -1839 620z m890 -1725 c203 -43 332 -180 391 -415 16 -62 19
-113 19 -295 0 -245 -10 -310 -70 -440 -64 -141 -206 -253 -342 -271 -93 -12
-63 -29 102 -57 86 -15 178 -32 205 -38 l50 -11 0 -124 c0 -68 -2 -124 -3
-124 -2 0 -123 22 -268 50 -145 27 -267 50 -271 50 -5 0 -8 55 -8 123 l0 122
-61 12 c-186 35 -322 179 -378 400 -43 164 -42 451 0 617 69 270 240 410 509
415 30 0 87 -6 125 -14z m-1387 -572 l2 -553 280 0 280 0 0 -135 0 -135 -430
0 -430 0 0 690 0 691 148 -3 147 -3 3 -552z" fill="#6842EB"/>
    <path d="M3083 3114 c-55 -20 -105 -77 -133 -150 -50 -135 -50 -443 1 -579 42
-113 134 -175 237 -161 95 13 163 82 198 201 26 86 26 402 1 494 -48 169 -164
244 -304 195z" fill="#6842EB"/>
  </g>
</svg>
